# xmcd
#
# Track frame offsets:
#	150
#	14183
#	29524
#	49785
#	67038
#	83108
#	101664
#	120052
#	134682
#	148886
#	169405
#	189200
#	206984
#	224342
#	244106
#
# Disc length: 3520 seconds
#
# Revision: 2
# Processed by: cddbd v1.5.2PL0 Copyright (c) Steve Scherf et al.
# Submitted via: audiograbber 1.83.01
#
DISCID=e80dbe0f
DTITLE=Various Artist - Chartbuster Best of 2000 Series Country Male Vol. 2 - 80018
DYEAR=1900
DGENRE=Karaoke
TTITLE0=Aaron Tippin - Kiss This
TTITLE1=The Statler Brothers - Flowers On The Wall
TTITLE2=Brian McKnight - Back At One
TTITLE3=Phil Vassar - My Next Thirty Years
TTITLE4=George Strait - The Best Day
TTITLE5=Clay Davidson - Unconditional
TTITLE6=Phil Vassar - Just Another Day In Paradise
TTITLE7=Brooks and Dunn - You'll Always Be Loved By Me
TTITLE8=Joe Diffie - It's Always Something
TTITLE9=Keith Urban - Your Everything
TTITLE10=Tim McGraw and Faith Hill - Let's Make Love
TTITLE11=Sonds Of The Desert - Change
TTITLE12=The Warren Brothers - That's The Beat Of A Heart
TTITLE13=Vince Gill - Feel Like Love
TTITLE14=Billy Gilman - One Voice
EXTD=
EXTT0=
EXTT1=
EXTT2=
EXTT3=
EXTT4=
EXTT5=
EXTT6=
EXTT7=
EXTT8=
EXTT9=
EXTT10=
EXTT11=
EXTT12=
EXTT13=
EXTT14=
PLAYORDER=
